# xmcd
#
# Track frame offsets:
#	150
#	15440
#	25001
#	35499
#	54274
#	74252
#	87633
#	106381
#	116782
#	130040
#	145268
#
# Disc length: 2096 seconds
#
# Revision: 0
# Processed by: cddbd v1.5.2PL0 Copyright (c) Steve Scherf et al.
# Submitted via: audiograbber 1.83.01
#
DISCID=8f082e0b
DTITLE=Rob Oxford - Some Favorites
DYEAR=2008
DGENRE=Country
TTITLE0=Sixteen Tons
TTITLE1=Folsom Prison Blues
TTITLE2=Walking After Midnight
TTITLE3=City of New Orleans
TTITLE4=Wabash Cannonball
TTITLE5=Waltz Across Texas
TTITLE6=Ghost Riders in the Sky
TTITLE7=Chattanooga Choo Choo
TTITLE8=I've Been Everywhere
TTITLE9=Three Wooden Crosses
TTITLE10=I Can't Help Falling in Love with You
EXTD=
EXTT0=
EXTT1=
EXTT2=
EXTT3=
EXTT4=
EXTT5=
EXTT6=
EXTT7=
EXTT8=
EXTT9=
EXTT10=
PLAYORDER=
